<svg width="18" height="12" viewBox="0 0 18 12" fill="none" xmlns="http://www.w3.org/2000/svg">
<path d="M7.25039 5.0625C8.21914 4.5625 8.75039 3.84375 8.75039 2.75C8.75039 0.53125 7.09414 0 5.21914 0H0.000391006V11.0625H5.34414C7.37539 11.0625 9.25039 10.0938 9.25039 7.84375C9.25039 6.46875 8.59414 5.4375 7.25039 5.0625ZM2.40664 1.875H4.71914C5.59414 1.875 6.37539 2.125 6.37539 3.15625C6.37539 4.09375 5.75039 4.46875 4.87539 4.46875H2.40664V1.875ZM5.03164 9.1875H2.40664V6.125H5.06289C6.15664 6.125 6.81289 6.59375 6.81289 7.71875C6.81289 8.84375 6.00039 9.1875 5.03164 9.1875ZM16.2191 1.65625V0.5625H11.7504V1.65625H16.2191ZM18.0004 7.1875C18.0004 4.8125 16.5941 2.8125 14.0941 2.8125C11.6254 2.8125 9.96914 4.65625 9.96914 7.0625C9.96914 9.5625 11.5629 11.2812 14.0941 11.2812C16.0004 11.2812 17.2504 10.4062 17.8441 8.59375H15.9066C15.6879 9.28125 14.8129 9.625 14.1566 9.625C12.8754 9.625 12.1879 8.875 12.1879 7.59375H17.9691C17.9691 7.46875 18.0004 7.3125 18.0004 7.1875ZM12.1879 6.1875C12.2504 5.15625 12.9691 4.5 14.0004 4.5C15.1254 4.5 15.6879 5.125 15.7816 6.1875H12.1879Z" fill="black"/>
</svg>
