<svg width="14" height="14" viewBox="0 0 14 14" fill="none" xmlns="http://www.w3.org/2000/svg">
<path d="M3.12539 13.9688V4.625H0.219141V13.9688H3.12539ZM1.65664 3.375C2.59414 3.375 3.34414 2.59375 3.34414 1.65625C3.34414 0.75 2.59414 0 1.65664 0C0.750391 0 0.00039053 0.75 0.00039053 1.65625C0.00039053 2.59375 0.750391 3.375 1.65664 3.375ZM13.9691 13.9688H14.0004V8.84375C14.0004 6.34375 13.4379 4.40625 10.5004 4.40625C9.09414 4.40625 8.15664 5.1875 7.75039 5.90625H7.71914V4.625H4.93789V13.9688H7.84414V9.34375C7.84414 8.125 8.06289 6.96875 9.56289 6.96875C11.0629 6.96875 11.0941 8.34375 11.0941 9.4375V13.9688H13.9691Z" fill="black"/>
</svg>
