<svg width="15" height="15" viewBox="0 0 15 15" fill="none" xmlns="http://www.w3.org/2000/svg">
<path d="M7.03164 3.40625C5.03164 3.40625 3.43789 5.03125 3.43789 7C3.43789 9 5.03164 10.5938 7.03164 10.5938C9.00039 10.5938 10.6254 9 10.6254 7C10.6254 5.03125 9.00039 3.40625 7.03164 3.40625ZM7.03164 9.34375C5.75039 9.34375 4.68789 8.3125 4.68789 7C4.68789 5.71875 5.71914 4.6875 7.03164 4.6875C8.31289 4.6875 9.34414 5.71875 9.34414 7C9.34414 8.3125 8.31289 9.34375 7.03164 9.34375ZM11.5941 3.28125C11.5941 2.8125 11.2191 2.4375 10.7504 2.4375C10.2816 2.4375 9.90664 2.8125 9.90664 3.28125C9.90664 3.75 10.2816 4.125 10.7504 4.125C11.2191 4.125 11.5941 3.75 11.5941 3.28125ZM13.9691 4.125C13.9066 3 13.6566 2 12.8441 1.1875C12.0316 0.375 11.0316 0.125 9.90664 0.0625C8.75039 0 5.28164 0 4.12539 0.0625C3.00039 0.125 2.03164 0.375 1.18789 1.1875C0.375391 2 0.125391 3 0.0628905 4.125C0.00039053 5.28125 0.00039053 8.75 0.0628905 9.90625C0.125391 11.0312 0.375391 12 1.18789 12.8438C2.03164 13.6562 3.00039 13.9062 4.12539 13.9688C5.28164 14.0312 8.75039 14.0312 9.90664 13.9688C11.0316 13.9062 12.0316 13.6562 12.8441 12.8438C13.6566 12 13.9066 11.0312 13.9691 9.90625C14.0316 8.75 14.0316 5.28125 13.9691 4.125ZM12.4691 11.125C12.2504 11.75 11.7504 12.2188 11.1566 12.4688C10.2191 12.8438 8.03164 12.75 7.03164 12.75C6.00039 12.75 3.81289 12.8438 2.90664 12.4688C2.28164 12.2188 1.81289 11.75 1.56289 11.125C1.18789 10.2188 1.28164 8.03125 1.28164 7C1.28164 6 1.18789 3.8125 1.56289 2.875C1.81289 2.28125 2.28164 1.8125 2.90664 1.5625C3.81289 1.1875 6.00039 1.28125 7.03164 1.28125C8.03164 1.28125 10.2191 1.1875 11.1566 1.5625C11.7504 1.78125 12.2191 2.28125 12.4691 2.875C12.8441 3.8125 12.7504 6 12.7504 7C12.7504 8.03125 12.8441 10.2188 12.4691 11.125Z" fill="black"/>
</svg>
