<svg width="16" height="13" viewBox="0 0 16 13" fill="none" xmlns="http://www.w3.org/2000/svg">
<path d="M14.3441 3.21875C14.9691 2.75 15.5316 2.1875 15.9691 1.53125C15.4066 1.78125 14.7504 1.96875 14.0941 2.03125C14.7816 1.625 15.2816 1 15.5316 0.21875C14.9066 0.59375 14.1879 0.875 13.4691 1.03125C12.8441 0.375 12.0004 0 11.0629 0C9.25039 0 7.78164 1.46875 7.78164 3.28125C7.78164 3.53125 7.81289 3.78125 7.87539 4.03125C5.15664 3.875 2.71914 2.5625 1.09414 0.59375C0.812891 1.0625 0.656641 1.625 0.656641 2.25C0.656641 3.375 1.21914 4.375 2.12539 4.96875C1.59414 4.9375 1.06289 4.8125 0.625391 4.5625V4.59375C0.625391 6.1875 1.75039 7.5 3.25039 7.8125C3.00039 7.875 2.68789 7.9375 2.40664 7.9375C2.18789 7.9375 2.00039 7.90625 1.78164 7.875C2.18789 9.1875 3.40664 10.125 4.84414 10.1562C3.71914 11.0312 2.31289 11.5625 0.781641 11.5625C0.500391 11.5625 0.250391 11.5312 0.00039053 11.5C1.43789 12.4375 3.15664 12.9688 5.03164 12.9688C11.0629 12.9688 14.3441 8 14.3441 3.65625C14.3441 3.5 14.3441 3.375 14.3441 3.21875Z" fill="black"/>
</svg>
